<svg width="20" height="20" viewBox="0 0 20 20" fill="none" xmlns="http://www.w3.org/2000/svg">
<path d="M8.46708 5C9.23688 3.66667 11.1614 3.66667 11.9312 5L17.1273 14C17.8971 15.3333 16.9349 17 15.3953 17H5.00299C3.46338 17 2.50113 15.3333 3.27093 14L8.46708 5Z" fill="white"/>
<path d="M9.69838 7.76474L9.92838 12.8847H10.7184L10.9484 7.76474H9.69838ZM10.3184 13.4747C10.1184 13.4747 9.94838 13.5347 9.80838 13.6747C9.65838 13.8047 9.58838 13.9747 9.58838 14.1847C9.58838 14.3847 9.65838 14.5547 9.80838 14.6947C9.94838 14.8347 10.1184 14.9047 10.3184 14.9047C10.5184 14.9047 10.6984 14.8347 10.8484 14.7047C10.9884 14.5647 11.0584 14.3947 11.0584 14.1847C11.0584 13.9747 10.9884 13.8047 10.8484 13.6747C10.7084 13.5347 10.5284 13.4747 10.3184 13.4747Z" fill="#342D49"/>
</svg>
