<?xml version="1.0" encoding="UTF-8"?>
<svg width="22px" height="22px" viewBox="0 0 22 22" version="1.1" xmlns="http://www.w3.org/2000/svg" xmlns:xlink="http://www.w3.org/1999/xlink">
    <title>交易路由icon</title>
    <g id="页面-1" stroke="none" stroke-width="1" fill="none" fill-rule="evenodd">
        <g id="画板备份-2" transform="translate(-1392.000000, -273.000000)" fill="#9DA1FF" fill-rule="nonzero">
            <g id="编组-7" transform="translate(1392.000000, 271.000000)">
                <g id="luxian" transform="translate(11.000000, 13.000000) rotate(-270.000000) translate(-11.000000, -13.000000) translate(0.000000, 2.000000)">
                    <path d="M16.8646223,4.36125399 L19.6559948,7.17874713 C19.8503455,7.37491649 19.8488712,7.69149555 19.6527018,7.88584625 C19.5590711,7.97860899 19.4326003,8.0306502 19.3007988,8.0306502 L17.4910714,8.0306502 L17.4910714,8.0306502 L17.4910714,15.0095224 C17.4910714,16.098646 17.1004464,17.0382384 16.3214286,17.8193721 C15.5424107,18.6094331 14.6004464,19 13.5022321,19 C12.4129464,19 11.4732143,18.6094331 10.6830357,17.8305312 C9.89285714,17.0516292 9.51339286,16.1098051 9.51339286,15.0206814 L9.51339286,8.0306502 C9.51339286,7.50171105 9.3125,7.03079899 8.90401786,6.62014581 C8.49107143,6.21172445 8.02008929,6.01086148 7.49107143,6.01086148 C6.96205357,6.01086148 6.49107143,6.21172445 6.08035714,6.62014581 C5.66964286,7.03079899 5.47098214,7.490552 5.47098214,8.0306502 L5.47098214,15.0095224 L7.26613497,15.0095224 C7.54227735,15.0095224 7.76613497,15.23338 7.76613497,15.5095224 C7.76613497,15.6419009 7.71363838,15.768877 7.62015678,15.8626067 L4.84415578,18.6459782 C4.64912051,18.8414259 4.3325789,18.8418691 4.13699708,18.6469683 L1.35659684,15.8747558 C1.16104698,15.6797818 1.16058016,15.3631996 1.35555417,15.1676498 C1.44936439,15.0735625 1.57676476,15.0206814 1.70962851,15.0206814 L3.5,15.0206814 L3.5,15.0206814 L3.5,8.0306502 C3.5,6.94152656 3.89955357,5.99077518 4.68080357,5.20071418 C5.45982143,4.40172593 6.40178571,4 7.5,4 C8.59821429,4 9.52901786,4.39949412 10.3191964,5.20071418 C11.0982143,5.99970243 11.4888393,6.94152656 11.4888393,8.03957744 L11.4888393,15.0184496 C11.4888393,15.5473888 11.6897321,16.0183008 12.0982143,16.428954 C12.5089286,16.8396072 12.9776786,17.0382384 13.5089286,17.0382384 C14.0379464,17.0382384 14.5089286,16.8373754 14.9196429,16.428954 C15.3303571,16.0183008 15.5290179,15.5496206 15.5290179,15.0184496 L15.5290179,8.0306502 L13.7258596,8.0306502 C13.4497172,8.0306502 13.2258596,7.80679258 13.2258596,7.5306502 C13.2258596,7.3990911 13.27771,7.27283288 13.3701712,7.17924478 L16.1537379,4.36175164 C16.3478137,4.16531036 16.6643904,4.16339281 16.8608317,4.35746866 C16.862102,4.35872366 16.8633655,4.35998545 16.8646223,4.36125399 Z" id="路径"></path>
                </g>
            </g>
        </g>
    </g>
</svg>